<?xml version="1.0" encoding="utf-8"?>
<!-- Generator: Adobe Illustrator 21.0.0, SVG Export Plug-In . SVG Version: 6.00 Build 0)  -->
<svg version="1.1" id="Layer_1" xmlns="http://www.w3.org/2000/svg" xmlns:xlink="http://www.w3.org/1999/xlink" x="0px" y="0px"
	 viewBox="0 0 400 118.2" style="enable-background:new 0 0 400 118.2;" xml:space="preserve">
<style type="text/css">
	.st0{fill:#FFFFFF;}
	.st1{fill:#BBBFBF;}
</style>
<g>
	<g>
		<polygon class="st0" points="53.9,40.1 16.1,40.1 16.1,3.6 0,3.6 0,87.3 16.1,87.3 16.1,45.1 53.9,45.1 53.9,87.3 70.1,87.3 
			70.1,3.6 53.9,3.6 		"/>
		<path class="st0" d="M78.2,87.3h6L97,62.4h40.1l12.3,24.9h16.1L121.9,0L78.2,87.3z M99.3,57.8l17.2-34.9l18.1,34.9H99.3z"/>
		<path class="st0" d="M169.7,87.3h6l12.8-24.9h40.1l12.3,24.9H257L213.4,0L169.7,87.3z M190.8,57.8l17.2-35l18.1,34.9L190.8,57.8
			L190.8,57.8z"/>
		<polygon class="st0" points="281,3.6 264.8,3.6 264.8,87.3 311.4,87.3 311.4,82.5 281,82.5 		"/>
		<path class="st0" d="M356.3,0l-43.7,87.3h6l12.8-24.9h40.1l12.3,24.9H400L356.3,0z M333.7,57.8l17.3-35l18,35H333.7z"/>
	</g>
	<g>
		<path class="st1" d="M72.4,106.6c-0.8-0.6-1.8-1-3-1.1c0.6-0.2,1.2-0.5,1.7-0.9s1-1,1.3-1.6s0.5-1.5,0.5-2.4c0-1.1-0.3-2-0.8-2.8
			s-1.3-1.4-2.4-1.9c-1-0.5-2.3-0.7-3.8-0.7h-1.8h-1.6h-0.4H62h-2.5v0.3c0,0,0.1,0,0.2,0s0.2,0,0.2,0c0.6,0,1,0.2,1.5,0.6
			c0.4,0.4,0.6,0.9,0.6,1.4v17.9c0,0.6-0.2,1-0.6,1.4c-0.4,0.4-0.9,0.6-1.5,0.6c0,0-0.1,0-0.2,0s-0.2,0-0.2,0v0.3H62h0.1h1.7h0.3
			h3.3c1.6,0,3-0.3,4.1-0.8s2-1.2,2.6-2.1s0.9-2,0.9-3.2c0-1.1-0.2-2.1-0.7-2.9C73.9,107.9,73.3,107.2,72.4,106.6z M72,114.3
			c-0.4,0.8-1,1.4-1.8,1.8s-1.7,0.6-2.8,0.6h-3.2V96.2h1.7c1,0,1.9,0.2,2.6,0.5c0.7,0.4,1.2,0.9,1.6,1.6s0.5,1.5,0.5,2.5
			s-0.2,1.9-0.5,2.5c-0.4,0.6-0.8,1.1-1.4,1.4s-1.1,0.5-1.7,0.6s-1.2,0.2-1.7,0.2v0.3c0.8,0,1.6,0.1,2.4,0.2
			c0.9,0.1,1.6,0.4,2.4,0.8c0.7,0.4,1.3,1,1.8,1.7c0.5,0.8,0.7,1.7,0.7,2.9S72.4,113.5,72,114.3z"/>
		<path class="st1" d="M126.1,116.3c-0.4-0.4-0.9-0.8-1.3-1.3c-0.3-0.3-0.7-0.8-1.2-1.4s-0.9-1.2-1.3-1.8s-1-1.3-1.5-2.2
			c-0.3-0.4-0.7-0.9-1.1-1.3c-0.4-0.5-0.8-0.8-1.2-0.9c1,0,2-0.3,2.8-0.9s1.5-1.4,2-2.3s0.7-1.9,0.7-3c0-0.9-0.1-1.8-0.4-2.5
			s-0.7-1.4-1.2-1.9s-1.2-0.9-2-1.2c-0.8-0.3-1.7-0.4-2.6-0.4h-4.1h-0.4h-1.6h-0.1h-2.5v0.3h0.4c0.6,0,1,0.2,1.4,0.6
			s0.6,0.9,0.6,1.4v17.9c0,0.6-0.2,1-0.6,1.4s-0.9,0.6-1.4,0.6h-0.4v0.3h2.5h0.1h1.9h0.1h2.5v-0.3h-0.4c-0.6,0-1-0.2-1.5-0.6
			c-0.4-0.4-0.6-0.9-0.6-1.4V96.1c0.8,0,1.5,0,2.2,0c0.6,0,1.3,0,1.9,0c1.2,0.1,2.2,0.5,2.9,1.4c0.7,0.9,1.1,2,1.1,3.5
			c0,0.3,0,0.7,0,1.1s-0.1,0.7-0.2,0.9c-0.3,1-0.7,1.7-1.3,2.2c-0.6,0.5-1.2,0.8-1.9,0.9c-0.7,0.2-1.3,0.2-1.8,0.3c-0.5,0-1,0-1.7,0
			v0.3c0.6,0,1.1,0.2,1.6,0.7s0.9,0.9,1.4,1.5c0,0.1,0.2,0.3,0.5,0.7c0.3,0.4,0.6,0.9,1,1.4c0.4,0.6,0.8,1.1,1.2,1.7
			c0.4,0.6,0.7,1.1,1,1.5s0.5,0.7,0.5,0.7c0.3,0.4,0.8,0.8,1.3,1.3c0.5,0.4,1.1,0.8,1.8,1.1c0.7,0.3,1.6,0.5,2.6,0.5h1.8v-0.3
			c-0.6,0-1.2-0.1-1.7-0.3C127,116.9,126.6,116.6,126.1,116.3z"/>
		<path class="st1" d="M180.2,117c-0.5-0.3-1-0.8-1.3-1.6l-8.7-20.7H170c0,0.2-0.1,0.4-0.2,0.8c-0.1,0.4-0.3,0.7-0.4,1.1
			c-0.2,0.4-0.4,0.9-0.6,1.4l-7.4,17.6c-0.3,0.7-0.7,1.1-1.2,1.4s-1,0.5-1.5,0.5h-0.3v0.3h6.5v-0.3h-0.3c-0.3,0-0.5-0.1-0.8-0.2
			c-0.2-0.2-0.4-0.4-0.5-0.7c-0.1-0.3-0.1-0.6,0-1l2.2-5.6h8.7l2.1,5.6c0.2,0.6,0.2,1.1-0.1,1.4c-0.3,0.4-0.7,0.5-1.1,0.5h-0.3v0.3
			h7.3v-0.3h-0.3C181.3,117.5,180.8,117.3,180.2,117z M165.9,109l4.1-10.4l3.9,10.4H165.9z"/>
		<path class="st1" d="M235.5,95.1h-1.3h-0.1h-2.6v0.3c0,0,0.2,0,0.6,0c0.6,0,1,0.2,1.4,0.6s0.6,0.8,0.6,1.4v16l-17.6-18.8h-0.3
			c0.2,1.6,0.3,2.9,0.3,4v16.8c0,0.5-0.2,1-0.6,1.4c-0.4,0.4-0.9,0.6-1.4,0.6c0,0-0.2,0-0.6,0v0.3h2.6h0.1h1.3h0.1h2.6v-0.3
			c-0.4,0-0.6,0-0.6,0c-0.5,0-1-0.2-1.4-0.6s-0.6-0.9-0.6-1.4l0,0V99.3l17.7,18.8h0.3c-0.1-0.8-0.2-1.5-0.2-2.2c0-0.6-0.1-1.3-0.1-2
			V97.4c0-0.6,0.2-1,0.6-1.4c0.4-0.4,0.9-0.6,1.4-0.6h0.6v-0.3H235.5L235.5,95.1z"/>
		<path class="st1" d="M289,96.5c-1.7-0.9-3.8-1.4-6.1-1.4h-6.4h-0.9h-1.1h-0.1H272v0.3h0.4c0.6,0,1,0.2,1.5,0.6
			c0.4,0.4,0.6,0.9,0.6,1.4v17.9c0,0.6-0.2,1-0.6,1.4s-0.9,0.6-1.4,0.6H272v0.3h2.5h0.1h1.5h0.6h6.4c2.3,0,4.3-0.5,6.1-1.4
			c1.7-0.9,3.1-2.3,4.1-4s1.5-3.7,1.5-5.9c0-2.3-0.5-4.2-1.5-6C292.1,98.8,290.8,97.5,289,96.5z M291,111.9
			c-0.8,1.6-1.8,2.8-3.2,3.6s-3,1.3-4.8,1.3c-0.9,0-1.7,0-2.4,0c-0.7,0-1.4,0-2.1,0c-0.5,0-1.2,0-1.9,0V96.1c0.6,0,1.2,0,1.7,0
			c0.7,0,1.4,0,2.2,0c0.7,0,1.6,0,2.5,0c1.8,0,3.4,0.4,4.8,1.3s2.5,2.1,3.2,3.6c0.8,1.6,1.1,3.4,1.1,5.4
			C292.2,108.5,291.8,110.3,291,111.9z"/>
		<path class="st1" d="M340.1,110.2c-0.2-0.7-0.6-1.3-1.3-1.9l-6.4-5.9c-0.5-0.5-0.8-1-1-1.5s-0.3-1-0.3-1.4c0-1,0.4-1.9,1.1-2.6
			s1.7-1.1,2.9-1.1c1,0,1.9,0.3,2.6,0.9s1.1,1.4,1.1,2.4h0.3v-3.3v-0.3V95h-1.4c-0.1,0-0.2-0.1-0.4-0.1c-0.4-0.1-0.8-0.1-1.2-0.2
			c-0.4,0-0.8-0.1-1.1-0.1c-1.2,0-2.3,0.3-3.1,0.8c-0.9,0.5-1.5,1.2-1.9,2.1c-0.4,0.8-0.6,1.7-0.6,2.6c0,0.6,0.1,1.3,0.4,2
			s0.7,1.4,1.4,2l6.2,5.8c0.4,0.4,0.7,0.8,0.9,1.3s0.3,1.1,0.3,1.7c0,1.3-0.4,2.3-1.3,3.1s-1.9,1.2-3.1,1.2c-0.9,0-1.8-0.1-2.5-0.6
			s-1.3-1-1.7-1.9c-0.4-0.8-0.5-1.8-0.4-2.9h-0.3c-0.2,0.5-0.3,1-0.4,1.6s-0.1,1.1-0.1,1.6s0,0.9,0.1,1.3c0.4,0.4,1,0.8,1.6,1.1
			c0.7,0.3,1.3,0.5,2,0.6s1.3,0.2,1.8,0.2c1.9,0,3.3-0.6,4.4-1.7s1.6-2.6,1.6-4.4C340.4,111.5,340.3,110.9,340.1,110.2z"/>
	</g>
</g>
</svg>
